<svg width="16" height="16" viewBox="0 0 16 16" fill="none" xmlns="http://www.w3.org/2000/svg">
<path d="M12.6641 7.33366H8.66406V3.33366C8.66406 3.15685 8.59382 2.98728 8.4688 2.86225C8.34378 2.73723 8.17421 2.66699 7.9974 2.66699C7.82058 2.66699 7.65102 2.73723 7.52599 2.86225C7.40097 2.98728 7.33073 3.15685 7.33073 3.33366V7.33366H3.33073C3.15392 7.33366 2.98435 7.4039 2.85932 7.52892C2.7343 7.65394 2.66406 7.82351 2.66406 8.00033C2.66406 8.17714 2.7343 8.34671 2.85932 8.47173C2.98435 8.59675 3.15392 8.66699 3.33073 8.66699H7.33073V12.667C7.33073 12.8438 7.40097 13.0134 7.52599 13.1384C7.65102 13.2634 7.82058 13.3337 7.9974 13.3337C8.17421 13.3337 8.34378 13.2634 8.4688 13.1384C8.59382 13.0134 8.66406 12.8438 8.66406 12.667V8.66699H12.6641C12.8409 8.66699 13.0104 8.59675 13.1355 8.47173C13.2605 8.34671 13.3307 8.17714 13.3307 8.00033C13.3307 7.82351 13.2605 7.65394 13.1355 7.52892C13.0104 7.4039 12.8409 7.33366 12.6641 7.33366Z" fill="white"/>
</svg>
