<svg width="16" height="16" viewBox="0 0 16 16" fill="none" xmlns="http://www.w3.org/2000/svg">
<path d="M8.16634 10.1536C8.16634 8.56766 6.78256 7.22648 4.99967 7.22648C4.32254 7.22648 3.70389 7.41853 3.19238 7.75187L3.18913 7.75448C2.35971 8.28438 1.83301 9.16597 1.83301 10.1536C1.83312 11.0957 2.31451 11.9411 3.08496 12.4758C3.23797 12.5821 3.31935 12.765 3.2959 12.9498L3.15072 14.0885L4.74447 13.1431L4.80436 13.1132C4.86595 13.087 4.93231 13.0735 4.99967 13.0735C6.02741 13.0735 6.93116 12.6238 7.49381 11.942L7.49902 11.9361C7.92049 11.4406 8.16626 10.8204 8.16634 10.1536ZM9.16634 10.1536C9.16629 10.7497 9.02194 11.3146 8.76725 11.8196L8.77962 11.8202L8.84668 11.8241C8.91294 11.8331 8.97694 11.8555 9.03483 11.8899L11.8284 13.55L11.8324 13.552H11.8317C11.9413 13.6184 12.093 13.5343 12.0765 13.3879L11.8167 11.2812C11.7941 11.0977 11.8744 10.9166 12.0257 10.8105C13.3323 9.89462 14.1663 8.44781 14.1663 6.82674C14.1663 4.10141 11.7898 1.83325 8.77962 1.83325C5.88139 1.83328 3.57113 3.9358 3.40332 6.52466C3.89652 6.33102 4.43519 6.22648 4.99967 6.22648C7.27012 6.22648 9.16634 7.9528 9.16634 10.1536ZM15.1663 6.82674C15.1663 8.69899 14.2524 10.3558 12.8441 11.4472L13.0693 13.2655V13.2668C13.1847 14.2249 12.1534 14.9123 11.3174 14.4094L8.63769 12.817C8.4493 12.8134 8.2629 12.8036 8.07845 12.7857C7.34978 13.5499 6.30236 14.0319 5.14355 14.0689L3.5153 15.0364L3.51465 15.0357C2.85364 15.4349 2.04965 14.8785 2.13639 14.1412L2.13704 14.1366L2.26725 13.1093C1.39254 12.3981 0.83311 11.3422 0.833008 10.1536C0.833008 8.90217 1.44974 7.7982 2.39876 7.08716C2.3948 6.99973 2.39291 6.91303 2.3929 6.82674C2.3929 3.48543 5.28314 0.833278 8.77962 0.833252C12.2761 0.833252 15.1663 3.48541 15.1663 6.82674Z" fill="#828282"/>
</svg>
