<svg width="34" height="34" viewBox="0 0 34 34" fill="none" xmlns="http://www.w3.org/2000/svg">
<path d="M17.3541 21.5762C17.3541 18.2061 14.4135 15.3561 10.6249 15.3561C9.186 15.3561 7.87137 15.7642 6.78442 16.4726L6.77751 16.4781C5.01499 17.6042 3.89575 19.4775 3.89575 21.5762C3.89599 23.5782 4.91894 25.3747 6.55615 26.511C6.8813 26.7368 7.05424 27.1254 7.0044 27.5181L6.69588 29.9378L10.0826 27.929L10.2099 27.8654C10.3408 27.8098 10.4818 27.781 10.6249 27.781C12.8089 27.781 14.7293 26.8255 15.925 25.3765L15.936 25.3641C16.8317 24.3111 17.3539 22.9932 17.3541 21.5762ZM19.4791 21.5762C19.479 22.8431 19.1722 24.0434 18.631 25.1165L18.6573 25.1178L18.7998 25.1261C18.9406 25.1452 19.0766 25.1929 19.1996 25.2659L25.1361 28.7937L25.1444 28.7979H25.143C25.3759 28.9389 25.6983 28.7603 25.6632 28.4492L25.1112 23.9723C25.0631 23.5825 25.2338 23.1977 25.5553 22.9721C28.3318 21.0259 30.104 17.9515 30.1041 14.5067C30.1041 8.71534 25.0539 3.89551 18.6573 3.89551C12.4986 3.89556 7.58925 8.36343 7.23267 13.8647C8.28071 13.4533 9.4254 13.2311 10.6249 13.2311C15.4496 13.2311 19.4791 16.8996 19.4791 21.5762ZM32.2291 14.5067C32.229 18.4852 30.2869 22.0059 27.2943 24.3251L27.773 28.1891V28.1919C28.0181 30.2277 25.8267 31.6885 24.0501 30.6199L18.3557 27.2359C17.9554 27.2283 17.5593 27.2076 17.1673 27.1695C15.6189 28.7935 13.3931 29.8176 10.9307 29.8963L7.47062 31.9522L7.46924 31.9508C6.0646 32.799 4.35612 31.6167 4.54045 30.0499L4.54183 30.0402L4.81852 27.8571C2.95975 26.3458 1.77097 24.102 1.77075 21.5762C1.77075 18.917 3.08131 16.571 5.09798 15.0601C5.08956 14.8743 5.08553 14.69 5.08553 14.5067C5.08553 7.40638 11.2273 1.77056 18.6573 1.77051C26.0874 1.77051 32.2291 7.40634 32.2291 14.5067Z" fill="black"/>
</svg>
