<svg width="34" height="34" viewBox="0 0 34 34" fill="none" xmlns="http://www.w3.org/2000/svg">
<path d="M17.406 2.90905C18.1412 2.65644 19.0217 2.58854 19.8561 2.88968L19.8575 2.8883C19.8604 2.88926 19.8629 2.89148 19.8658 2.89245C19.8752 2.89588 19.8854 2.89722 19.8949 2.90075L19.8935 2.90352C21.606 3.49535 22.7754 5.36471 22.4114 7.17565L22.4128 7.17703L21.7058 11.6954L21.7072 11.6968C21.6788 11.8963 21.736 12.0063 21.7874 12.0648C21.8466 12.1319 21.944 12.1836 22.071 12.1838H27.7377C29.0876 12.1838 30.2772 12.7313 31.0013 13.7139C31.7254 14.6966 31.8859 15.9831 31.4385 17.2597L31.4399 17.2611L28.0393 27.6025C27.7418 28.7066 27.0168 29.6206 26.1523 30.2532C25.2691 30.8994 24.1677 31.3088 23.063 31.3088H17.6799C17.1523 31.3088 16.5223 31.2233 15.9354 31.0556C15.4048 30.904 14.7823 30.6469 14.3167 30.22L9.94637 26.8361L11.2468 25.1565L15.6393 28.5557L15.6919 28.5972L15.7389 28.6442C15.8333 28.7386 16.0887 28.8892 16.5192 29.0122C16.9239 29.1279 17.3575 29.1838 17.6799 29.1838H23.063C23.6583 29.1838 24.3286 28.9553 24.8975 28.5391C25.4656 28.1234 25.8581 27.5756 25.9987 27.0131L26.0084 26.9758L26.0208 26.9398L29.42 16.597L29.4242 16.5846L29.4297 16.5721C29.679 15.8741 29.5539 15.3306 29.2913 14.9742C29.0238 14.6111 28.5128 14.3088 27.7377 14.3088H22.071C20.5932 14.3085 19.3673 13.045 19.6029 11.3952L19.6057 11.3814L20.314 6.84915L20.3182 6.81595L20.3265 6.78275C20.4833 6.07722 19.9814 5.16941 19.1851 4.904L19.1672 4.89847L19.1492 4.89155C18.8616 4.78372 18.4833 4.78622 18.0964 4.91922C17.7023 5.05469 17.4172 5.28363 17.2884 5.47676L17.287 5.48091L11.4779 14.122L10.5966 13.5299L9.71533 12.9364L15.5203 4.29805L15.6974 4.06009C16.1363 3.52518 16.7593 3.13136 17.406 2.90905Z" fill="black"/>
<path d="M9.39242 12.1131C9.39242 11.2423 9.20156 10.9338 9.06177 10.8044C8.90104 10.656 8.53181 10.4834 7.62158 10.4834H6.20492C5.29468 10.4834 4.92546 10.656 4.76473 10.8044C4.62493 10.9338 4.43408 11.2423 4.43408 12.1131V25.9962C4.43412 26.8676 4.62491 27.1758 4.76473 27.3049C4.92546 27.4533 5.29468 27.6245 6.20492 27.6245H7.62158C8.53181 27.6245 8.90104 27.4533 9.06177 27.3049C9.20159 27.1758 9.39237 26.8676 9.39242 25.9962V12.1131ZM11.5174 25.9962C11.5174 27.1074 11.2842 28.146 10.5033 28.8669C9.74323 29.5685 8.69468 29.7495 7.62158 29.7495H6.20492C5.13181 29.7495 4.08327 29.5685 3.32316 28.8669C2.54227 28.146 2.30912 27.1074 2.30908 25.9962V12.1131C2.30908 11.0019 2.54253 9.96333 3.32316 9.24243C4.08327 8.54079 5.13181 8.3584 6.20492 8.3584H7.62158C8.69468 8.3584 9.74323 8.54079 10.5033 9.24243C11.284 9.96333 11.5174 11.0019 11.5174 12.1131V25.9962Z" fill="black"/>
</svg>
