<svg width="29" height="29" viewBox="0 0 29 29" fill="none" xmlns="http://www.w3.org/2000/svg">
<path d="M14.499 5.18945C16.2802 6.48818 17.9563 7.92511 19.512 9.48695C21.0738 11.0426 22.5107 12.7188 23.8095 14.4999M14.499 5.18945C12.7178 6.48818 11.0416 7.92511 9.48597 9.48695C7.92414 11.0426 6.4872 12.7188 5.18847 14.4999M14.499 5.18945C19.854 1.31345 24.9195 -0.14155 27.03 1.96895C29.1405 4.07945 27.6855 9.14495 23.8095 14.4999M23.8095 14.4999C27.6855 19.8549 29.1405 24.9205 27.03 27.031C25.4655 28.5955 22.275 28.201 18.549 26.311M23.8095 14.4999C22.5107 16.2811 21.0738 17.9573 19.512 19.5129C17.9563 21.0748 16.2802 22.5117 14.499 23.8105M5.18847 14.4999C6.4872 16.2811 7.92414 17.9573 9.48597 19.5129C11.0416 21.0748 12.7178 22.5117 14.499 23.8105M5.18847 14.4999C1.31247 19.8549 -0.142527 24.9205 1.96797 27.031C4.07847 29.1415 9.14397 27.6865 14.499 23.8105M5.18847 14.4999C1.31397 9.14495 -0.141027 4.07945 1.96797 1.96895C3.53247 0.40445 6.72297 0.79895 10.449 2.68895" stroke="#3052B9" stroke-width="2" stroke-linecap="round" stroke-linejoin="round"/>
<path d="M14.499 17.5C16.1559 17.5 17.499 16.1569 17.499 14.5C17.499 12.8431 16.1559 11.5 14.499 11.5C12.8422 11.5 11.499 12.8431 11.499 14.5C11.499 16.1569 12.8422 17.5 14.499 17.5Z" stroke="#3052B9" stroke-width="2" stroke-linecap="round" stroke-linejoin="round"/>
</svg>
