<svg width="24" height="24" viewBox="0 0 24 24" fill="none" xmlns="http://www.w3.org/2000/svg">
<path d="M13 8.25C13.4142 8.25 13.75 8.58579 13.75 9C13.75 9.41421 13.4142 9.75 13 9.75H7C6.58579 9.75 6.25 9.41421 6.25 9C6.25 8.58579 6.58579 8.25 7 8.25H13Z" fill="black"/>
<path d="M21.2499 10.9695C21.2497 10.8508 21.166 10.7372 21.0331 10.7068L20.9736 10.7H18.9198C18.6059 10.7 18.3252 10.8068 18.1073 10.99L18.0175 11.073C18.0131 11.0775 18.0084 11.0822 18.0038 11.0867C17.7712 11.3139 17.6281 11.6253 17.621 11.9626L17.6269 12.1091L17.6279 12.1179L17.6435 12.2351C17.7566 12.8186 18.3376 13.2995 19.04 13.2996H20.9814C21.1438 13.2898 21.2499 13.1635 21.2499 13.03V10.9695ZM22.7499 13.03C22.7499 13.9341 22.073 14.6687 21.2031 14.7849L21.0273 14.7996H19.04C17.6291 14.7995 16.2598 13.7669 16.1327 12.2419L16.1337 12.241C16.0595 11.4315 16.3444 10.6725 16.8515 10.1208L16.956 10.0134C17.467 9.49575 18.1655 9.20002 18.9198 9.19995H21.0273L21.2031 9.21558C22.0729 9.33176 22.7497 10.0656 22.7499 10.9695V13.03Z" fill="black"/>
<path d="M20.25 8.5C20.25 7.2847 19.8814 6.30298 19.2744 5.59961C18.7067 4.94192 17.8945 4.48523 16.8711 4.32324L16.6631 4.29492C16.651 4.29351 16.6389 4.29203 16.627 4.29004C16.4471 4.26006 16.2446 4.25 16 4.25H7C6.87777 4.25 6.75864 4.25409 6.64258 4.2627L6.30371 4.30176C6.29697 4.30279 6.28997 4.30286 6.2832 4.30371C5.17614 4.44266 4.30597 4.91714 3.70996 5.61621C3.11239 6.31731 2.75 7.29287 2.75 8.5V15.5C2.75 16.8296 3.18986 17.8793 3.90527 18.5947C4.62069 19.3101 5.67044 19.75 7 19.75H16C17.3296 19.75 18.3793 19.3101 19.0947 18.5947C19.8101 17.8793 20.25 16.8296 20.25 15.5V14.7998H19.04C17.6291 14.7998 16.2599 13.7672 16.1328 12.2422V12.2412C16.0543 11.3845 16.3789 10.584 16.9424 10.0264L17.1436 9.83984C17.6318 9.43003 18.2542 9.20021 18.9199 9.2002H20.25V8.5ZM21.75 9.9502C21.7499 10.3643 21.4142 10.7002 21 10.7002H18.9199C18.6056 10.7002 18.3244 10.8067 18.1064 10.9902L18.0176 11.0732C18.0132 11.0778 18.0084 11.0825 18.0039 11.0869C17.7712 11.3142 17.6281 11.6255 17.6211 11.9629L17.627 12.1084L17.6279 12.1182H17.627C17.6801 12.753 18.2911 13.2998 19.04 13.2998H21C21.4142 13.2998 21.7499 13.6357 21.75 14.0498V15.5C21.75 17.1704 21.1899 18.6207 20.1553 19.6553C19.1207 20.6899 17.6704 21.25 16 21.25H7C5.32956 21.25 3.87931 20.6899 2.84473 19.6553C1.81014 18.6207 1.25 17.1704 1.25 15.5V8.5C1.25 6.98713 1.70843 5.65246 2.56836 4.64355C3.42572 3.63775 4.6425 3.00381 6.07617 2.81934V2.81836C6.07876 2.81796 6.08139 2.81778 6.08398 2.81738C6.08819 2.81685 6.09247 2.81596 6.09668 2.81543V2.81641C6.39025 2.77235 6.69147 2.75 7 2.75H16C16.2641 2.75 16.5484 2.76081 16.8359 2.80566L16.8369 2.80469C18.295 2.97429 19.5358 3.60694 20.4102 4.62012C21.2832 5.63175 21.75 6.9753 21.75 8.5V9.9502Z" fill="black"/>
</svg>
