<svg width="24" height="24" viewBox="0 0 24 24" fill="none" xmlns="http://www.w3.org/2000/svg">
<path d="M20.25 11.5C20.25 6.66751 16.3325 2.75 11.5 2.75C6.66751 2.75 2.75 6.66751 2.75 11.5C2.75 16.3325 6.66751 20.25 11.5 20.25C16.3325 20.25 20.25 16.3325 20.25 11.5ZM21.75 11.5C21.75 17.1609 17.1609 21.75 11.5 21.75C5.83908 21.75 1.25 17.1609 1.25 11.5C1.25 5.83908 5.83908 1.25 11.5 1.25C17.1609 1.25 21.75 5.83908 21.75 11.5Z" fill="#292D32"/>
<path d="M19.4698 19.4698C19.7444 19.1952 20.1792 19.1778 20.4737 19.4181L20.5304 19.4698L22.5304 21.4698L22.5821 21.5265C22.8225 21.8211 22.805 22.2558 22.5304 22.5304C22.2558 22.805 21.8211 22.8225 21.5265 22.5821L21.4698 22.5304L19.4698 20.5304L19.4181 20.4737C19.1778 20.1792 19.1952 19.7444 19.4698 19.4698Z" fill="#292D32"/>
</svg>
