<svg width="60" height="60" viewBox="0 0 60 60" fill="none" xmlns="http://www.w3.org/2000/svg">
<path d="M15.8175 47.5C15.4642 47.5 15.1675 47.38 14.9275 47.14C14.6875 46.9 14.5675 46.6025 14.5675 46.2475C14.5675 45.8925 14.6875 45.5958 14.9275 45.3575C15.1675 45.1192 15.4642 45 15.8175 45H44.1825C44.5375 45 44.8342 45.12 45.0725 45.36C45.3108 45.6 45.4308 45.8975 45.4325 46.2525C45.4342 46.6075 45.3142 46.9042 45.0725 47.1425C44.8308 47.3808 44.5342 47.5 44.1825 47.5H15.8175ZM17.76 40.29C16.7767 40.29 15.92 39.9817 15.19 39.365C14.46 38.7483 13.9917 37.965 13.785 37.015L10.8 21.1875C10.7167 21.2208 10.6233 21.2392 10.52 21.2425C10.415 21.2475 10.3208 21.25 10.2375 21.25C9.4525 21.25 8.8 20.9833 8.28 20.45C7.76 19.9167 7.5 19.27 7.5 18.51C7.5 17.7217 7.76083 17.0517 8.2825 16.5C8.8025 15.95 9.45583 15.675 10.2425 15.675C11.0292 15.675 11.6983 15.95 12.25 16.5C12.8 17.0517 13.075 17.7217 13.075 18.51C13.075 18.6833 13.0683 18.8442 13.055 18.9925C13.0417 19.1408 12.9925 19.2875 12.9075 19.4325L19.8075 22.21C20.1275 22.3383 20.4483 22.355 20.77 22.26C21.09 22.1633 21.3617 21.9708 21.585 21.6825L28.34 12.5325C27.9783 12.2958 27.6917 11.9825 27.48 11.5925C27.2683 11.2042 27.1625 10.785 27.1625 10.335C27.1625 9.54833 27.4383 8.87917 27.99 8.3275C28.54 7.77583 29.2092 7.5 29.9975 7.5C30.7842 7.5 31.4542 7.775 32.0075 8.325C32.5608 8.875 32.8375 9.54167 32.8375 10.325C32.8375 10.7983 32.7317 11.225 32.52 11.605C32.3083 11.9883 32.0217 12.2975 31.66 12.5325L38.415 21.6825C38.6383 21.9708 38.91 22.1625 39.23 22.2575C39.5517 22.3558 39.8725 22.3408 40.1925 22.2125L47.0925 19.4325C47.0475 19.2992 47.0083 19.1533 46.975 18.995C46.9417 18.835 46.925 18.6733 46.925 18.51C46.925 17.7217 47.185 17.0517 47.705 16.5C48.225 15.95 48.8783 15.675 49.665 15.675C50.4517 15.675 51.1208 15.95 51.6725 16.5C52.2242 17.0517 52.5 17.7217 52.5 18.51C52.5 19.2667 52.2233 19.9125 51.67 20.4475C51.1167 20.9825 50.445 21.25 49.655 21.25C49.5917 21.25 49.52 21.24 49.44 21.22C49.36 21.2 49.2717 21.1892 49.175 21.1875L46.215 37.0125C46.0067 37.9658 45.5383 38.75 44.81 39.365C44.0817 39.98 43.225 40.2883 42.24 40.29H17.76Z" fill="#FEC746"/>
</svg>
