<svg width="520" height="179" viewBox="0 0 520 179" fill="none" xmlns="http://www.w3.org/2000/svg">
<path opacity="0.5" d="M74.3576 173.583V141.821H0V115.23L80.2669 0H111.29V113.014H134.927V141.821H111.29V173.583H74.3576ZM74.3576 113.014V45.304H80.5131L27.5763 121.878V113.014H74.3576Z" fill="url(#paint0_linear_3316_9301)"/>
<mask id="mask0_3316_9301" style="mask-type:alpha" maskUnits="userSpaceOnUse" x="0" y="0" width="135" height="174">
<path d="M74.3576 173.583V141.821H0V115.23L80.2669 0H111.29V113.014H134.927V141.821H111.29V173.583H74.3576ZM74.3576 113.014V45.304H80.5131L27.5763 121.878V113.014H74.3576Z" fill="url(#paint1_linear_3316_9301)"/>
</mask>
<g mask="url(#mask0_3316_9301)">
<g style="mix-blend-mode:multiply">
<path d="M1560.67 146.88C1549.91 148.89 1538.87 151.71 1527.32 155.265C1507.99 161.214 1488.67 167.163 1469.34 168.503C1451.61 169.733 1431.4 163.77 1407.56 156.736C1377.49 147.863 1341.64 137.285 1297.69 137.285C1266.31 137.285 1239.39 144.479 1213.46 151.406C1174.31 161.868 1137.43 171.723 1090.87 155.265C1013.49 127.91 964.947 128.665 900.93 158.581C836.914 188.497 784.75 182.909 742.17 169.296C738.046 167.977 733.964 166.595 729.91 165.223C713.749 159.753 698.052 154.439 682.022 153.921C659.555 153.091 637.087 160.635 614.619 168.179C596.988 174.098 579.358 180.018 561.727 181.892C539.428 184.261 517.13 180.1 494.831 175.939C477.032 172.617 459.232 169.296 441.432 169.296C422.91 169.296 404.387 172.892 385.865 176.489C364.289 180.679 342.713 184.869 321.138 183.374C301.811 182.034 282.484 176.091 263.158 170.147C242.386 163.759 221.615 157.371 200.843 156.7C170.171 155.566 143.689 161.767 117.271 167.953C84.786 175.559 52.3986 183.143 12.4377 177.038C-9.15796 173.739 -29.805 168.408 -50.1772 163.148C-98.7745 150.599 -145.808 138.454 -200.422 155.265C-219.748 161.214 -239.075 167.163 -258.402 168.503C-279.977 170 -301.553 165.806 -323.129 161.613C-361.947 154.068 -393.192 153.795 -432.095 161.062C-454.394 165.226 -476.693 169.391 -498.991 167.02C-516.622 165.145 -534.252 159.22 -551.883 153.295C-600.335 137.011 -631.946 136.957 -679.433 154.413C-683.806 156.02 -688.345 157.817 -692.979 159.651C-709.594 166.228 -727.421 173.286 -743.098 173.793C-862.092 173.793 -862.057 176.312 -860.363 296.61C-860.134 312.86 -859.875 331.259 -859.875 352.091L1560.67 352.091V146.88Z" fill="#3052B9"/>
</g>
<g style="mix-blend-mode:multiply">
<path d="M1857.54 146.88C1846.78 148.89 1835.74 151.71 1824.19 155.265C1804.86 161.214 1785.54 167.163 1766.21 168.503C1748.48 169.733 1728.27 163.77 1704.43 156.736C1674.36 147.863 1638.51 137.285 1594.56 137.285C1563.18 137.285 1536.26 144.479 1510.33 151.406C1471.18 161.868 1434.3 171.723 1387.74 155.265C1310.36 127.91 1261.82 128.665 1197.8 158.581C1133.78 188.497 1081.62 182.909 1039.04 169.296C1034.92 167.977 1030.83 166.595 1026.78 165.223C1010.62 159.753 994.921 154.439 978.892 153.921C956.425 153.091 933.957 160.635 911.489 168.179C893.858 174.098 876.227 180.018 858.596 181.892C836.298 184.261 814 180.1 791.701 175.939C773.901 172.617 756.102 169.296 738.302 169.296C719.779 169.296 701.257 172.892 682.734 176.489C661.159 180.679 639.583 184.869 618.007 183.374C598.681 182.034 579.354 176.091 560.028 170.147C539.256 163.759 518.484 157.371 497.713 156.7C467.041 155.566 440.558 161.767 414.141 167.953C381.656 175.559 349.268 183.143 309.307 177.038C287.712 173.739 267.065 168.408 246.692 163.148C198.095 150.599 151.062 138.454 96.448 155.265C77.1213 161.214 57.7947 167.163 38.4681 168.503C16.8924 170 -4.68335 165.806 -26.259 161.613C-65.0778 154.068 -96.3219 153.795 -135.226 161.062C-157.524 165.226 -179.823 169.391 -202.121 167.02C-219.752 165.145 -237.383 159.22 -255.013 153.295C-303.465 137.011 -335.077 136.957 -382.564 154.413C-386.936 156.02 -391.476 157.817 -396.11 159.651C-412.724 166.228 -430.552 173.286 -446.228 173.793C-565.223 173.793 -565.187 176.312 -563.494 296.61C-563.265 312.86 -563.006 331.259 -563.006 352.091L1857.54 352.091V146.88Z" fill="#3052B9"/>
</g>
<g style="mix-blend-mode:multiply">
<path d="M-1669.7 146.88C-1658.95 148.89 -1647.91 151.71 -1636.36 155.265C-1617.03 161.214 -1597.71 167.163 -1578.38 168.503C-1560.65 169.733 -1540.44 163.77 -1516.6 156.736C-1486.53 147.863 -1450.68 137.285 -1406.73 137.285C-1375.35 137.285 -1348.43 144.479 -1322.5 151.406C-1283.35 161.868 -1246.47 171.723 -1199.91 155.265C-1122.52 127.91 -1073.98 128.665 -1009.97 158.581C-945.952 188.497 -893.788 182.909 -851.208 169.296C-847.084 167.977 -843.002 166.595 -838.948 165.223C-822.787 159.753 -807.09 154.439 -791.061 153.921C-768.593 153.091 -746.125 160.635 -723.657 168.179C-706.026 174.098 -688.396 180.018 -670.765 181.892C-648.466 184.261 -626.168 180.1 -603.869 175.939C-586.07 172.617 -568.27 169.296 -550.47 169.296C-531.948 169.296 -513.425 172.892 -494.903 176.489C-473.327 180.679 -451.751 184.869 -430.176 183.374C-410.849 182.034 -391.523 176.091 -372.196 170.147C-351.424 163.759 -330.653 157.371 -309.881 156.7C-279.209 155.566 -252.727 161.767 -226.309 167.953C-193.824 175.559 -161.437 183.143 -121.476 177.038C-99.8801 173.739 -79.2331 168.408 -58.8608 163.148C-10.2635 150.599 36.7697 138.454 91.3835 155.265C110.71 161.214 130.037 167.163 149.363 168.503C170.939 170 192.515 165.806 214.091 161.613C252.909 154.068 284.153 153.795 323.057 161.062C345.356 165.226 367.654 169.391 389.953 167.02C407.584 165.145 425.214 159.22 442.845 153.295C491.297 137.011 522.908 136.957 570.395 154.413C574.767 156.02 579.307 157.817 583.941 159.651C600.556 166.228 618.383 173.286 634.06 173.793C753.054 173.793 753.019 176.312 751.325 296.61C751.096 312.86 750.837 331.259 750.837 352.091L-1669.7 352.091V146.88Z" fill="#3052B9"/>
</g>
<g style="mix-blend-mode:multiply">
<path d="M-1814.62 146.88C-1803.87 148.89 -1792.83 151.71 -1781.28 155.265C-1761.95 161.214 -1742.62 167.163 -1723.3 168.503C-1705.57 169.733 -1685.36 163.77 -1661.52 156.736C-1631.45 147.863 -1595.6 137.285 -1551.65 137.285C-1520.26 137.285 -1493.34 144.479 -1467.42 151.406C-1428.27 161.868 -1391.38 171.723 -1344.83 155.265C-1267.44 127.91 -1218.9 128.665 -1154.89 158.581C-1090.87 188.497 -1038.71 182.909 -996.127 169.296C-992.003 167.977 -987.921 166.595 -983.867 165.223C-967.706 159.753 -952.009 154.439 -935.979 153.921C-913.512 153.091 -891.044 160.635 -868.577 168.179C-850.946 174.098 -833.315 180.018 -815.684 181.892C-793.385 184.261 -771.087 180.1 -748.788 175.939C-730.989 172.617 -713.189 169.296 -695.389 169.296C-676.867 169.296 -658.344 172.892 -639.822 176.489C-618.246 180.679 -596.67 184.869 -575.095 183.374C-555.768 182.034 -536.442 176.091 -517.115 170.147C-496.343 163.759 -475.572 157.371 -454.8 156.7C-424.128 155.566 -397.646 161.767 -371.228 167.953C-338.743 175.559 -306.356 183.143 -266.395 177.038C-244.799 173.739 -224.152 168.408 -203.78 163.148C-155.182 150.599 -108.149 138.454 -53.5354 155.265C-34.2087 161.214 -14.8821 167.163 4.44452 168.503C26.0202 170 47.5959 165.806 69.1716 161.613C107.99 154.068 139.234 153.795 178.138 161.062C200.437 165.226 222.736 169.391 245.034 167.02C262.665 165.145 280.295 159.22 297.926 153.295C346.378 137.011 377.989 136.957 425.476 154.413C429.849 156.02 434.388 157.817 439.022 159.651C455.637 166.228 473.464 173.286 489.141 173.793C608.135 173.793 608.1 176.312 606.406 296.61C606.177 312.86 605.918 331.259 605.918 352.091L-1814.62 352.091V146.88Z" fill="#3052B9"/>
</g>
</g>
<g clip-path="url(#clip0_3316_9301)">
<path opacity="0.5" d="M259.513 179C238.667 179 222.58 171.203 211.254 155.609C200.093 139.851 194.512 117.692 194.512 89.1307C194.512 60.077 200.093 37.9995 211.254 22.8982C222.58 7.63274 238.667 0 259.513 0C280.524 0 296.61 7.63274 307.772 22.8982C318.934 37.9995 324.514 59.995 324.514 88.8845C324.514 117.61 318.934 139.851 307.772 155.609C296.61 171.203 280.524 179 259.513 179ZM259.513 147.977C269.034 147.977 276.092 143.299 280.688 133.942C285.448 124.422 287.828 109.403 287.828 88.8845C287.828 68.3664 285.448 53.5933 280.688 44.5653C276.092 35.5374 269.034 31.0234 259.513 31.0234C249.993 31.0234 242.852 35.5374 238.092 44.5653C233.496 53.5933 231.198 68.2843 231.198 88.6383C231.198 109.321 233.578 124.422 238.338 133.942C243.099 143.299 250.157 147.977 259.513 147.977Z" fill="url(#paint2_linear_3316_9301)"/>
<mask id="mask1_3316_9301" style="mask-type:alpha" maskUnits="userSpaceOnUse" x="194" y="0" width="131" height="179">
<path d="M259.513 179C238.667 179 222.58 171.203 211.254 155.609C200.093 139.851 194.512 117.692 194.512 89.1307C194.512 60.077 200.093 37.9995 211.254 22.8982C222.58 7.63274 238.667 0 259.513 0C280.524 0 296.61 7.63274 307.772 22.8982C318.934 37.9995 324.514 59.995 324.514 88.8845C324.514 117.61 318.934 139.851 307.772 155.609C296.61 171.203 280.524 179 259.513 179ZM259.513 147.977C269.034 147.977 276.092 143.299 280.688 133.942C285.448 124.422 287.828 109.403 287.828 88.8845C287.828 68.3664 285.448 53.5933 280.688 44.5653C276.092 35.5374 269.034 31.0234 259.513 31.0234C249.993 31.0234 242.852 35.5374 238.092 44.5653C233.496 53.5933 231.198 68.2843 231.198 88.6383C231.198 109.321 233.578 124.422 238.338 133.942C243.099 143.299 250.157 147.977 259.513 147.977Z" fill="url(#paint3_linear_3316_9301)"/>
</mask>
<g mask="url(#mask1_3316_9301)">
<g style="mix-blend-mode:multiply">
<path d="M1755.18 146.88C1744.42 148.89 1733.38 151.71 1721.83 155.265C1702.51 161.214 1683.18 167.163 1663.85 168.503C1646.12 169.733 1625.91 163.77 1602.07 156.736C1572 147.863 1536.15 137.285 1492.2 137.285C1460.82 137.285 1433.9 144.479 1407.98 151.406C1368.82 161.868 1331.94 171.723 1285.38 155.265C1208 127.91 1159.46 128.665 1095.44 158.581C1031.43 188.497 979.262 182.909 936.682 169.296C932.558 167.977 928.476 166.595 924.423 165.223C908.261 159.753 892.564 154.439 876.535 153.921C854.068 153.091 831.6 160.635 809.132 168.179C791.501 174.098 773.87 180.018 756.24 181.892C733.941 184.261 711.643 180.1 689.344 175.939C671.544 172.617 653.745 169.296 635.945 169.296C617.422 169.296 598.9 172.892 580.377 176.489C558.802 180.679 537.226 184.869 515.65 183.374C496.324 182.034 476.997 176.091 457.671 170.147C436.899 163.759 416.127 157.371 395.356 156.7C364.684 155.566 338.201 161.767 311.784 167.953C279.299 175.559 246.911 183.143 206.95 177.038C185.355 173.739 164.708 168.408 144.335 163.148C95.7382 150.599 48.7049 138.454 -5.90894 155.265C-25.2356 161.214 -44.5622 167.163 -63.8889 168.503C-85.4645 170 -107.04 165.806 -128.616 161.613C-167.435 154.068 -198.679 153.795 -237.583 161.062C-259.881 165.226 -282.18 169.391 -304.478 167.02C-322.109 165.145 -339.74 159.22 -357.37 153.295C-405.822 137.011 -437.434 136.957 -484.92 154.413C-489.293 156.02 -493.833 157.817 -498.467 159.651C-515.081 166.228 -532.909 173.286 -548.585 173.793C-667.58 173.793 -667.544 176.312 -665.85 296.61C-665.622 312.86 -665.363 331.259 -665.363 352.091L1755.18 352.091V146.88Z" fill="#3052B9"/>
</g>
<g style="mix-blend-mode:multiply">
<path d="M2052.05 146.88C2041.29 148.89 2030.25 151.71 2018.7 155.265C1999.38 161.214 1980.05 167.163 1960.72 168.503C1942.99 169.733 1922.78 163.77 1898.94 156.736C1868.87 147.863 1833.02 137.285 1789.07 137.285C1757.69 137.285 1730.77 144.479 1704.85 151.406C1665.69 161.868 1628.81 171.723 1582.25 155.265C1504.87 127.91 1456.33 128.665 1392.31 158.581C1328.3 188.497 1276.13 182.909 1233.55 169.296C1229.43 167.977 1225.35 166.595 1221.29 165.223C1205.13 159.753 1189.43 154.439 1173.41 153.921C1150.94 153.091 1128.47 160.635 1106 168.179C1088.37 174.098 1070.74 180.018 1053.11 181.892C1030.81 184.261 1008.51 180.1 986.214 175.939C968.414 172.617 950.615 169.296 932.815 169.296C914.293 169.296 895.77 172.892 877.248 176.489C855.672 180.679 834.096 184.869 812.521 183.374C793.194 182.034 773.867 176.091 754.541 170.147C733.769 163.759 712.998 157.371 692.226 156.7C661.554 155.566 635.071 161.767 608.654 167.953C576.169 175.559 543.781 183.143 503.82 177.038C482.225 173.739 461.578 168.408 441.206 163.148C392.608 150.599 345.575 138.454 290.961 155.265C271.635 161.214 252.308 167.163 232.981 168.503C211.406 170 189.83 165.806 168.254 161.613C129.435 154.068 98.1913 153.795 59.2874 161.062C36.9888 165.226 14.6903 169.391 -7.60825 167.02C-25.2389 165.145 -42.8695 159.22 -60.5002 153.295C-108.952 137.011 -140.563 136.957 -188.05 154.413C-192.423 156.02 -196.962 157.817 -201.596 159.651C-218.211 166.228 -236.038 173.286 -251.715 173.793C-370.709 173.793 -370.674 176.312 -368.98 296.61C-368.752 312.86 -368.493 331.259 -368.493 352.091L2052.05 352.091V146.88Z" fill="#3052B9"/>
</g>
<g style="mix-blend-mode:multiply">
<path d="M-1475.19 146.88C-1464.44 148.89 -1453.4 151.71 -1441.85 155.265C-1422.52 161.214 -1403.19 167.163 -1383.87 168.503C-1366.14 169.733 -1345.93 163.77 -1322.09 156.736C-1292.02 147.863 -1256.17 137.285 -1212.22 137.285C-1180.83 137.285 -1153.91 144.479 -1127.99 151.406C-1088.84 161.868 -1051.95 171.723 -1005.4 155.265C-928.013 127.91 -879.473 128.665 -815.457 158.581C-751.44 188.497 -699.276 182.909 -656.696 169.296C-652.572 167.977 -648.49 166.595 -644.437 165.223C-628.275 159.753 -612.578 154.439 -596.549 153.921C-574.081 153.091 -551.613 160.635 -529.146 168.179C-511.515 174.098 -493.884 180.018 -476.253 181.892C-453.955 184.261 -431.656 180.1 -409.358 175.939C-391.558 172.617 -373.758 169.296 -355.959 169.296C-337.436 169.296 -318.914 172.892 -300.391 176.489C-278.815 180.679 -257.24 184.869 -235.664 183.374C-216.337 182.034 -197.011 176.091 -177.684 170.147C-156.913 163.759 -136.141 157.371 -115.37 156.7C-84.6973 155.566 -58.215 161.767 -31.7973 167.953C0.687622 175.559 33.0751 183.143 73.0359 177.038C94.6316 173.739 115.279 168.408 135.651 163.148C184.248 150.599 231.281 138.454 285.895 155.265C305.222 161.214 324.549 167.163 343.875 168.503C365.451 170 387.027 165.806 408.602 161.613C447.421 154.068 478.665 153.795 517.569 161.062C539.868 165.226 562.166 169.391 584.465 167.02C602.095 165.145 619.726 159.22 637.357 153.295C685.809 137.011 717.42 136.957 764.907 154.413C769.279 156.02 773.819 157.817 778.453 159.651C795.068 166.228 812.895 173.286 828.572 173.793C947.566 173.793 947.53 176.312 945.837 296.61C945.608 312.86 945.349 331.259 945.349 352.091L-1475.19 352.091V146.88Z" fill="#3052B9"/>
</g>
<g style="mix-blend-mode:multiply">
<path d="M-1620.11 146.88C-1609.36 148.89 -1598.31 151.71 -1586.76 155.265C-1567.44 161.214 -1548.11 167.163 -1528.78 168.503C-1511.05 169.733 -1490.84 163.77 -1467 156.736C-1436.93 147.863 -1401.08 137.285 -1357.14 137.285C-1325.75 137.285 -1298.83 144.479 -1272.91 151.406C-1233.75 161.868 -1196.87 171.723 -1150.31 155.265C-1072.93 127.91 -1024.39 128.665 -960.374 158.581C-896.358 188.497 -844.194 182.909 -801.614 169.296C-797.49 167.977 -793.407 166.595 -789.354 165.223C-773.193 159.753 -757.496 154.439 -741.466 153.921C-718.999 153.091 -696.531 160.635 -674.063 168.179C-656.432 174.098 -638.801 180.018 -621.171 181.892C-598.872 184.261 -576.574 180.1 -554.275 175.939C-536.475 172.617 -518.676 169.296 -500.876 169.296C-482.354 169.296 -463.831 172.892 -445.309 176.489C-423.733 180.679 -402.157 184.869 -380.582 183.374C-361.255 182.034 -341.928 176.091 -322.602 170.147C-301.83 163.759 -281.059 157.371 -260.287 156.7C-229.615 155.566 -203.133 161.767 -176.715 167.953C-144.23 175.559 -111.842 183.143 -71.8815 177.038C-50.2859 173.739 -29.6388 168.408 -9.26654 163.148C39.3307 150.599 86.364 138.454 140.978 155.265C160.304 161.214 179.631 167.163 198.958 168.503C220.533 170 242.109 165.806 263.685 161.613C302.504 154.068 333.748 153.795 372.652 161.062C394.95 165.226 417.249 169.391 439.547 167.02C457.178 165.145 474.808 159.22 492.439 153.295C540.891 137.011 572.502 136.957 619.989 154.413C624.362 156.02 628.901 157.817 633.535 159.651C650.15 166.228 667.977 173.286 683.654 173.793C802.648 173.793 802.613 176.312 800.919 296.61C800.691 312.86 800.431 331.259 800.431 352.091L-1620.11 352.091V146.88Z" fill="#3052B9"/>
</g>
</g>
</g>
<g clip-path="url(#clip1_3316_9301)">
<path opacity="0.5" d="M457.963 173.583V141.821H383.605V115.23L463.872 0H494.896V113.014H518.533V141.821H494.896V173.583H457.963ZM457.963 113.014V45.304H464.119L411.182 121.878V113.014H457.963Z" fill="url(#paint4_linear_3316_9301)"/>
<mask id="mask2_3316_9301" style="mask-type:alpha" maskUnits="userSpaceOnUse" x="383" y="0" width="136" height="174">
<path d="M457.963 173.583V141.821H383.605V115.23L463.872 0H494.896V113.014H518.533V141.821H494.896V173.583H457.963ZM457.963 113.014V45.304H464.119L411.182 121.878V113.014H457.963Z" fill="url(#paint5_linear_3316_9301)"/>
</mask>
<g mask="url(#mask2_3316_9301)">
<g style="mix-blend-mode:multiply">
<path d="M1944.27 146.88C1933.52 148.89 1922.48 151.71 1910.93 155.265C1891.6 161.214 1872.27 167.163 1852.95 168.503C1835.21 169.733 1815.01 163.77 1791.17 156.736C1761.09 147.863 1725.25 137.285 1681.3 137.285C1649.91 137.285 1622.99 144.479 1597.07 151.406C1557.91 161.868 1521.03 171.723 1474.48 155.265C1397.09 127.91 1348.55 128.665 1284.54 158.581C1220.52 188.497 1168.36 182.909 1125.78 169.296C1121.65 167.977 1117.57 166.595 1113.52 165.223C1097.35 159.753 1081.66 154.439 1065.63 153.921C1043.16 153.091 1020.69 160.635 998.225 168.179C980.594 174.098 962.964 180.018 945.333 181.892C923.034 184.261 900.736 180.1 878.437 175.939C860.638 172.617 842.838 169.296 825.038 169.296C806.516 169.296 787.993 172.892 769.471 176.489C747.895 180.679 726.319 184.869 704.744 183.374C685.417 182.034 666.09 176.091 646.764 170.147C625.992 163.759 605.221 157.371 584.449 156.7C553.777 155.566 527.295 161.767 500.877 167.953C468.392 175.559 436.005 183.143 396.044 177.038C374.448 173.739 353.801 168.408 333.429 163.148C284.831 150.599 237.798 138.454 183.184 155.265C163.858 161.214 144.531 167.163 125.204 168.503C103.629 170 82.053 165.806 60.4773 161.613C21.6585 154.068 -9.58557 153.795 -48.4895 161.062C-70.7881 165.226 -93.0865 169.391 -115.385 167.02C-133.016 165.145 -150.646 159.22 -168.277 153.295C-216.729 137.011 -248.34 136.957 -295.827 154.413C-300.2 156.02 -304.739 157.817 -309.373 159.651C-325.988 166.228 -343.815 173.286 -359.492 173.793C-478.486 173.793 -478.451 176.312 -476.757 296.61C-476.528 312.86 -476.269 331.259 -476.269 352.091L1944.27 352.091V146.88Z" fill="#3052B9"/>
</g>
<g style="mix-blend-mode:multiply">
<path d="M2241.14 146.88C2230.39 148.89 2219.35 151.71 2207.8 155.265C2188.47 161.214 2169.14 167.163 2149.82 168.503C2132.08 169.733 2111.88 163.77 2088.04 156.736C2057.96 147.863 2022.12 137.285 1978.17 137.285C1946.78 137.285 1919.86 144.479 1893.94 151.406C1854.78 161.868 1817.9 171.723 1771.35 155.265C1693.96 127.91 1645.42 128.665 1581.41 158.581C1517.39 188.497 1465.23 182.909 1422.65 169.296C1418.52 167.977 1414.44 166.595 1410.39 165.223C1394.22 159.753 1378.53 154.439 1362.5 153.921C1340.03 153.091 1317.56 160.635 1295.1 168.179C1277.46 174.098 1259.83 180.018 1242.2 181.892C1219.9 184.261 1197.61 180.1 1175.31 175.939C1157.51 172.617 1139.71 169.296 1121.91 169.296C1103.39 169.296 1084.86 172.892 1066.34 176.489C1044.77 180.679 1023.19 184.869 1001.61 183.374C982.287 182.034 962.961 176.091 943.634 170.147C922.862 163.759 902.091 157.371 881.319 156.7C850.647 155.566 824.165 161.767 797.747 167.953C765.262 175.559 732.875 183.143 692.914 177.038C671.318 173.739 650.671 168.408 630.299 163.148C581.702 150.599 534.668 138.454 480.054 155.265C460.728 161.214 441.401 167.163 422.075 168.503C400.499 170 378.923 165.806 357.347 161.613C318.529 154.068 287.285 153.795 248.381 161.062C226.082 165.226 203.784 169.391 181.485 167.02C163.854 165.145 146.224 159.22 128.593 153.295C80.1412 137.011 48.5299 136.957 1.04294 154.413C-3.32947 156.02 -7.86917 157.817 -12.5032 159.651C-29.1179 166.228 -46.9451 173.286 -62.6219 173.793C-181.616 173.793 -181.581 176.312 -179.887 296.61C-179.658 312.86 -179.399 331.259 -179.399 352.091L2241.14 352.091V146.88Z" fill="#3052B9"/>
</g>
<g style="mix-blend-mode:multiply">
<path d="M-1286.1 146.88C-1275.35 148.89 -1264.3 151.71 -1252.75 155.265C-1233.43 161.214 -1214.1 167.163 -1194.77 168.503C-1177.04 169.733 -1156.83 163.77 -1132.99 156.736C-1102.92 147.863 -1067.07 137.285 -1023.13 137.285C-991.741 137.285 -964.821 144.479 -938.898 151.406C-899.742 161.868 -862.861 171.723 -816.303 155.265C-738.92 127.91 -690.38 128.665 -626.364 158.581C-562.347 188.497 -510.183 182.909 -467.603 169.296C-463.479 167.977 -459.397 166.595 -455.344 165.223C-439.182 159.753 -423.485 154.439 -407.456 153.921C-384.989 153.091 -362.521 160.635 -340.053 168.179C-322.422 174.098 -304.791 180.018 -287.16 181.892C-264.862 184.261 -242.563 180.1 -220.265 175.939C-202.465 172.617 -184.666 169.296 -166.866 169.296C-148.343 169.296 -129.821 172.892 -111.298 176.489C-89.7227 180.679 -68.147 184.869 -46.5713 183.374C-27.2446 182.034 -7.91809 176.091 11.4084 170.147C32.1801 163.759 52.9517 157.371 73.7233 156.7C104.396 155.566 130.878 161.767 157.295 167.953C189.78 175.559 222.168 183.143 262.129 177.038C283.724 173.739 304.371 168.408 324.744 163.148C373.341 150.599 420.374 138.454 474.988 155.265C494.315 161.214 513.641 167.163 532.968 168.503C554.544 170 576.119 165.806 597.695 161.613C636.514 154.068 667.758 153.795 706.662 161.062C728.96 165.226 751.259 169.391 773.557 167.02C791.188 165.145 808.819 159.22 826.449 153.295C874.901 137.011 906.513 136.957 954 154.413C958.372 156.02 962.912 157.817 967.546 159.651C984.16 166.228 1001.99 173.286 1017.66 173.793C1136.66 173.793 1136.62 176.312 1134.93 296.61C1134.7 312.86 1134.44 331.259 1134.44 352.091L-1286.1 352.091V146.88Z" fill="#3052B9"/>
</g>
<g style="mix-blend-mode:multiply">
<path d="M-1431.02 146.88C-1420.26 148.89 -1409.22 151.71 -1397.67 155.265C-1378.34 161.214 -1359.02 167.163 -1339.69 168.503C-1321.96 169.733 -1301.75 163.77 -1277.91 156.736C-1247.84 147.863 -1211.99 137.285 -1168.04 137.285C-1136.66 137.285 -1109.74 144.479 -1083.81 151.406C-1044.66 161.868 -1007.78 171.723 -961.22 155.265C-883.837 127.91 -835.297 128.665 -771.281 158.581C-707.264 188.497 -655.1 182.909 -612.52 169.296C-608.396 167.977 -604.314 166.595 -600.261 165.223C-584.099 159.753 -568.402 154.439 -552.373 153.921C-529.905 153.091 -507.438 160.635 -484.97 168.179C-467.339 174.098 -449.708 180.018 -432.078 181.892C-409.779 184.261 -387.48 180.1 -365.182 175.939C-347.382 172.617 -329.583 169.296 -311.783 169.296C-293.26 169.296 -274.738 172.892 -256.215 176.489C-234.64 180.679 -213.064 184.869 -191.488 183.374C-172.162 182.034 -152.835 176.091 -133.509 170.147C-112.737 163.759 -91.9653 157.371 -71.1937 156.7C-40.5215 155.566 -14.0393 161.767 12.3784 167.953C44.8633 175.559 77.2509 183.143 117.212 177.038C138.807 173.739 159.454 168.408 179.827 163.148C228.424 150.599 275.457 138.454 330.071 155.265C349.398 161.214 368.724 167.163 388.051 168.503C409.627 170 431.202 165.806 452.778 161.613C491.597 154.068 522.841 153.795 561.745 161.062C584.043 165.226 606.342 169.391 628.64 167.02C646.271 165.145 663.902 159.22 681.532 153.295C729.984 137.011 761.596 136.957 809.083 154.413C813.455 156.02 817.995 157.817 822.629 159.651C839.243 166.228 857.071 173.286 872.747 173.793C991.742 173.793 991.706 176.312 990.013 296.61C989.784 312.86 989.525 331.259 989.525 352.091L-1431.02 352.091V146.88Z" fill="#3052B9"/>
</g>
</g>
</g>
<defs>
<linearGradient id="paint0_linear_3316_9301" x1="62.5392" y1="152.586" x2="146.952" y2="-26.8708" gradientUnits="userSpaceOnUse">
<stop stop-color="#DFDFDF"/>
<stop offset="1" stop-color="#F4EBFF"/>
</linearGradient>
<linearGradient id="paint1_linear_3316_9301" x1="62.5402" y1="152.585" x2="63.0217" y2="82.2627" gradientUnits="userSpaceOnUse">
<stop stop-color="#B3B3B3"/>
<stop offset="1" stop-color="white"/>
</linearGradient>
<linearGradient id="paint2_linear_3316_9301" x1="254.768" y1="157.347" x2="345.54" y2="-22.9573" gradientUnits="userSpaceOnUse">
<stop stop-color="#DFDFDF"/>
<stop offset="1" stop-color="#F4EBFF"/>
</linearGradient>
<linearGradient id="paint3_linear_3316_9301" x1="254.768" y1="157.347" x2="255.3" y2="84.8303" gradientUnits="userSpaceOnUse">
<stop stop-color="#B3B3B3"/>
<stop offset="1" stop-color="white"/>
</linearGradient>
<linearGradient id="paint4_linear_3316_9301" x1="446.145" y1="152.586" x2="530.558" y2="-26.8708" gradientUnits="userSpaceOnUse">
<stop stop-color="#DFDFDF"/>
<stop offset="1" stop-color="#F4EBFF"/>
</linearGradient>
<linearGradient id="paint5_linear_3316_9301" x1="446.146" y1="152.585" x2="446.627" y2="82.2627" gradientUnits="userSpaceOnUse">
<stop stop-color="#B3B3B3"/>
<stop offset="1" stop-color="white"/>
</linearGradient>
<clipPath id="clip0_3316_9301">
<rect width="130.003" height="179" fill="white" transform="translate(194.512)"/>
</clipPath>
<clipPath id="clip1_3316_9301">
<rect width="135.42" height="174.814" fill="white" transform="translate(383.605)"/>
</clipPath>
</defs>
</svg>
