<svg width="36" height="36" viewBox="0 0 36 36" fill="none" xmlns="http://www.w3.org/2000/svg">
<g clip-path="url(#clip0_852_11365)">
<path d="M10.4989 23.2053C10.2883 23.4162 10.1699 23.7021 10.1699 24.0003C10.1699 24.2984 10.2883 24.5843 10.4989 24.7953C10.7099 25.0059 10.9958 25.1243 11.2939 25.1243C11.5921 25.1243 11.878 25.0059 12.0889 24.7953L15.8389 21.0453C16.0496 20.8343 16.1679 20.5484 16.1679 20.2503C16.1679 19.9521 16.0496 19.6662 15.8389 19.4553L12.0889 15.7053C11.8757 15.5065 11.5936 15.3984 11.3021 15.4035C11.0107 15.4086 10.7326 15.5267 10.5265 15.7328C10.3204 15.9389 10.2023 16.217 10.1972 16.5085C10.192 16.7999 10.3002 17.082 10.4989 17.2953L13.1839 19.9803C13.2202 20.0152 13.2491 20.0572 13.2688 20.1036C13.2885 20.15 13.2987 20.1999 13.2987 20.2503C13.2987 20.3007 13.2885 20.3506 13.2688 20.3969C13.2491 20.4433 13.2202 20.4853 13.1839 20.5203L10.4989 23.2053ZM18.8239 23.6253H24.8239C25.1223 23.6253 25.4084 23.5067 25.6194 23.2958C25.8304 23.0848 25.9489 22.7986 25.9489 22.5003C25.9489 22.2019 25.8304 21.9157 25.6194 21.7048C25.4084 21.4938 25.1223 21.3753 24.8239 21.3753H18.8239C18.5256 21.3753 18.2394 21.4938 18.0284 21.7048C17.8175 21.9157 17.6989 22.2019 17.6989 22.5003C17.6989 22.7986 17.8175 23.0848 18.0284 23.2958C18.2394 23.5067 18.5256 23.6253 18.8239 23.6253Z" fill="#3052B9"/>
<path d="M36 7.125C36 5.93153 35.5259 4.78693 34.682 3.94302C33.8381 3.09911 32.6935 2.625 31.5 2.625H4.5C3.30653 2.625 2.16193 3.09911 1.31802 3.94302C0.474106 4.78693 0 5.93153 0 7.125L0 28.875C0 30.0685 0.474106 31.2131 1.31802 32.057C2.16193 32.9009 3.30653 33.375 4.5 33.375H31.5C32.6935 33.375 33.8381 32.9009 34.682 32.057C35.5259 31.2131 36 30.0685 36 28.875V7.125ZM15.75 4.875C16.1478 4.875 16.5294 5.03304 16.8107 5.31434C17.092 5.59564 17.25 5.97718 17.25 6.375C17.25 6.77282 17.092 7.15436 16.8107 7.43566C16.5294 7.71696 16.1478 7.875 15.75 7.875C15.3522 7.875 14.9706 7.71696 14.6893 7.43566C14.408 7.15436 14.25 6.77282 14.25 6.375C14.25 5.97718 14.408 5.59564 14.6893 5.31434C14.9706 5.03304 15.3522 4.875 15.75 4.875ZM10.5 4.875C10.8978 4.875 11.2794 5.03304 11.5607 5.31434C11.842 5.59564 12 5.97718 12 6.375C12 6.77282 11.842 7.15436 11.5607 7.43566C11.2794 7.71696 10.8978 7.875 10.5 7.875C10.1022 7.875 9.72064 7.71696 9.43934 7.43566C9.15804 7.15436 9 6.77282 9 6.375C9 5.97718 9.15804 5.59564 9.43934 5.31434C9.72064 5.03304 10.1022 4.875 10.5 4.875ZM5.25 4.875C5.64782 4.875 6.02936 5.03304 6.31066 5.31434C6.59196 5.59564 6.75 5.97718 6.75 6.375C6.75 6.77282 6.59196 7.15436 6.31066 7.43566C6.02936 7.71696 5.64782 7.875 5.25 7.875C4.85218 7.875 4.47064 7.71696 4.18934 7.43566C3.90804 7.15436 3.75 6.77282 3.75 6.375C3.75 5.97718 3.90804 5.59564 4.18934 5.31434C4.47064 5.03304 4.85218 4.875 5.25 4.875ZM33 28.875C33 29.2728 32.842 29.6544 32.5607 29.9357C32.2794 30.217 31.8978 30.375 31.5 30.375H4.5C4.10218 30.375 3.72064 30.217 3.43934 29.9357C3.15804 29.6544 3 29.2728 3 28.875V10.5C3 10.4005 3.03951 10.3052 3.10984 10.2348C3.18016 10.1645 3.27554 10.125 3.375 10.125H32.625C32.7245 10.125 32.8198 10.1645 32.8902 10.2348C32.9605 10.3052 33 10.4005 33 10.5V28.875Z" fill="#3052B9"/>
</g>
<defs>
<clipPath id="clip0_852_11365">
<rect width="36" height="36" fill="white"/>
</clipPath>
</defs>
</svg>
