<svg width="34" height="34" viewBox="0 0 34 34" fill="none" xmlns="http://www.w3.org/2000/svg">
<path d="M17.3538 21.5765C17.3538 18.2064 14.4133 15.3564 10.6247 15.3564C9.18576 15.3564 7.87113 15.7646 6.78418 16.4729L6.77726 16.4784C5.01475 17.6045 3.89551 19.4779 3.89551 21.5765C3.89574 23.5785 4.9187 25.375 6.55591 26.5113C6.88105 26.7371 7.05399 27.1257 7.00415 27.5185L6.69564 29.9382L10.0824 27.9294L10.2096 27.8657C10.3405 27.8102 10.4815 27.7813 10.6247 27.7813C12.8086 27.7813 14.7291 26.8258 15.9247 25.3769L15.9358 25.3644C16.8314 24.3114 17.3537 22.9935 17.3538 21.5765ZM19.4788 21.5765C19.4787 22.8434 19.172 24.0437 18.6308 25.1168L18.6571 25.1182L18.7996 25.1265C18.9404 25.1455 19.0764 25.1932 19.1994 25.2662L25.1358 28.794L25.1441 28.7982H25.1427C25.3757 28.9393 25.698 28.7606 25.6629 28.4495L25.1109 23.9727C25.0628 23.5829 25.2335 23.198 25.555 22.9724C28.3316 21.0262 30.1037 17.9518 30.1038 14.507C30.1038 8.71566 25.0537 3.89583 18.6571 3.89583C12.4983 3.89589 7.58901 8.36375 7.23242 13.8651C8.28047 13.4536 9.42515 13.2314 10.6247 13.2314C15.4494 13.2314 19.4788 16.8999 19.4788 21.5765ZM32.2288 14.507C32.2287 18.4855 30.2867 22.0063 27.294 24.3254L27.7727 28.1895V28.1922C28.0179 30.2281 25.8264 31.6889 24.0498 30.6202L18.3555 27.2362C17.9551 27.2287 17.559 27.2079 17.1671 27.1698C15.6186 28.7938 13.3929 29.818 10.9304 29.8966L7.47038 31.9525L7.46899 31.9511C6.06435 32.7993 4.35587 31.617 4.5402 30.0502L4.54159 30.0405L4.81828 27.8574C2.9595 26.3461 1.77072 24.1023 1.77051 21.5765C1.77051 18.9173 3.08107 16.5714 5.09774 15.0604C5.08932 14.8746 5.08529 14.6904 5.08529 14.507C5.08529 7.4067 11.227 1.77089 18.6571 1.77083C26.0871 1.77083 32.2288 7.40667 32.2288 14.507Z" fill="#444444"/>
</svg>
