<svg width="16" height="16" viewBox="0 0 16 16" fill="none" xmlns="http://www.w3.org/2000/svg">
<path d="M1.15625 10.1598V10.0732C1.15625 8.68767 1.40359 7.57275 2.04427 6.77181C2.69654 5.95647 3.68004 5.55888 4.9362 5.44173C5.21115 5.4161 5.45484 5.6186 5.48047 5.89355C5.50595 6.1684 5.30416 6.4122 5.0293 6.43783L4.82747 6.45931C3.84175 6.5822 3.21959 6.90276 2.82487 7.39616C2.39233 7.93688 2.15625 8.77893 2.15625 10.0732V10.1598C2.15627 11.6003 2.44794 12.4789 2.97917 13.0101C3.51039 13.5413 4.38897 13.833 5.82943 13.833H10.1693C11.6098 13.833 12.4889 13.5413 13.0202 13.0101C13.5513 12.4789 13.8431 11.6002 13.8431 10.1598V10.0732C13.8431 8.76909 13.6034 7.92388 13.1647 7.38314C12.7371 6.8562 12.0453 6.52822 10.9199 6.43132C10.6449 6.40759 10.4413 6.16532 10.4648 5.8903C10.4885 5.61518 10.7307 5.41088 11.0059 5.43457C12.2805 5.54433 13.279 5.93654 13.9414 6.75293C14.5926 7.55551 14.8431 8.67751 14.8431 10.0732V10.1598C14.8431 11.6992 14.5375 12.9067 13.7272 13.7171C12.9168 14.5275 11.7087 14.833 10.1693 14.833H5.82943C4.29005 14.833 3.08253 14.5275 2.27214 13.7171C1.46174 12.9067 1.15627 11.6992 1.15625 10.1598ZM7.5026 9.9196V1.33301C7.5026 1.05697 7.7266 0.833177 8.0026 0.833008C8.27875 0.833008 8.5026 1.05687 8.5026 1.33301V9.9196C8.5026 10.1957 8.27875 10.4196 8.0026 10.4196C7.72661 10.4194 7.5026 10.1956 7.5026 9.9196Z" fill="black"/>
<path d="M10.2323 8.43359L7.99896 10.6669L5.76562 8.43359" stroke="black" stroke-width="1.5" stroke-linecap="round" stroke-linejoin="round"/>
</svg>
