<svg width="34" height="29" viewBox="0 0 34 29" fill="none" xmlns="http://www.w3.org/2000/svg">
<path d="M16.75 7.75001C17.875 3.30907 22.124 1.04149 31.375 1.00001C31.5229 0.99945 31.6694 1.02817 31.8062 1.08451C31.9429 1.14085 32.0672 1.22369 32.1717 1.32827C32.2763 1.43285 32.3592 1.55709 32.4155 1.69383C32.4718 1.83057 32.5006 1.97711 32.5 2.12501V22.375C32.5 22.6734 32.3815 22.9595 32.1705 23.1705C31.9595 23.3815 31.6734 23.5 31.375 23.5C22.375 23.5 18.8981 25.3148 16.75 28M16.75 7.75001C15.625 3.30907 11.376 1.04149 2.12501 1.00001C1.97711 0.99945 1.83057 1.02817 1.69383 1.08451C1.55709 1.14085 1.43285 1.22369 1.32827 1.32827C1.22369 1.43285 1.14085 1.55709 1.08451 1.69383C1.02817 1.83057 0.99945 1.97711 1.00001 2.12501V22.2393C1.00001 22.934 1.43032 23.5 2.12501 23.5C11.125 23.5 14.6146 25.3281 16.75 28M16.75 7.75001V28" stroke="#3052B9" stroke-width="2" stroke-linecap="round" stroke-linejoin="round"/>
</svg>
