<svg width="48" height="70" viewBox="0 0 48 70" fill="none" xmlns="http://www.w3.org/2000/svg">
<path d="M20.2925 43.5764L26.5084 47.1651L13.8858 69.0281L10.2629 60.9481L20.2925 43.5764Z" fill="#CE4444"/>
<path d="M20.2925 43.5764L14.0765 39.9876L1.45396 61.8505L10.2629 60.9481L20.2925 43.5764Z" fill="#983535"/>
<path d="M29.1616 43.5764L22.9457 47.1651L35.5683 69.0281L39.1912 60.9481L29.1616 43.5764Z" fill="#983535"/>
<path d="M29.1616 43.5764L35.3776 39.9876L48.0001 61.8505L39.1912 60.9481L29.1616 43.5764Z" fill="#CE4444"/>
<circle cx="24.5375" cy="28.5214" r="21.4003" fill="url(#paint0_linear_2_5957)"/>
<circle cx="24.5369" cy="28.5216" r="16.7048" fill="#A88300"/>
<mask id="mask0_2_5957" style="mask-type:alpha" maskUnits="userSpaceOnUse" x="8" y="13" width="35" height="35">
<circle cx="25.4273" cy="30.3052" r="16.7437" fill="#C28B37"/>
</mask>
<g mask="url(#mask0_2_5957)">
<circle cx="24.5357" cy="28.5216" r="16.7437" fill="#C09525"/>
</g>
<path d="M26.0245 16.8736L29.6444 24.0973L36.8844 25.0003L31.9129 30.5625L33.2644 38.5447L26.0245 34.9329L18.7845 38.5447L20.148 30.5625L15.1646 25.0003L22.4045 24.0973L26.0245 16.8736Z" fill="url(#paint1_linear_2_5957)"/>
<path d="M5.19454 15.5489L7.55484 10.366L5.19454 5.18298L10.3892 7.53799L15.5838 5.18298L13.2235 10.366L15.5838 15.5489L10.3892 13.1939L5.19454 15.5489Z" fill="white"/>
<defs>
<linearGradient id="paint0_linear_2_5957" x1="24.5375" y1="7.12112" x2="24.5375" y2="49.9216" gradientUnits="userSpaceOnUse">
<stop stop-color="#FFC600"/>
<stop offset="1" stop-color="#FFDE69"/>
</linearGradient>
<linearGradient id="paint1_linear_2_5957" x1="26.0245" y1="16.8736" x2="26.0245" y2="38.5447" gradientUnits="userSpaceOnUse">
<stop stop-color="#FFFCDD"/>
<stop offset="1" stop-color="#FFE896"/>
</linearGradient>
</defs>
</svg>
