<svg width="34" height="34" viewBox="0 0 34 34" fill="none" xmlns="http://www.w3.org/2000/svg">
<path d="M3.64087 8.30184C3.64087 4.71349 6.56611 1.77051 10.1722 1.77051H23.8284C27.4354 1.77051 30.3566 4.71286 30.3735 8.29631V28.2625C30.3735 29.7763 29.8252 31.1159 28.6567 31.8041C27.4877 32.4926 26.0514 32.3205 24.729 31.5841L17.8158 27.7464L17.8062 27.7409C17.6452 27.6495 17.3603 27.5721 17.012 27.5721C16.6648 27.5722 16.3723 27.6489 16.2 27.745L16.1986 27.7464L9.2854 31.5855L9.28125 31.5869C7.95777 32.3156 6.52356 32.4796 5.35775 31.793C4.19114 31.106 3.64094 29.7721 3.64087 28.2625V8.30184ZM5.76587 28.2625C5.76593 29.3022 6.12893 29.7821 6.43547 29.9627C6.74282 30.1437 7.34172 30.2294 8.2561 29.7262L15.1665 25.8884C15.7303 25.5744 16.4003 25.4472 17.012 25.4471C17.6197 25.4471 18.2869 25.5732 18.8465 25.8884H18.8479L25.7611 29.7275H25.7625C26.6779 30.2374 27.2733 30.1515 27.5776 29.9724C27.8823 29.7929 28.2485 29.3124 28.2485 28.2625V8.30599L28.2416 8.08048C28.1127 5.76085 26.1804 3.89551 23.8284 3.89551H10.1722C7.74329 3.89551 5.76587 5.88352 5.76587 8.30184V28.2625Z" fill="black"/>
</svg>
