<svg width="24" height="24" viewBox="0 0 24 24" fill="none" xmlns="http://www.w3.org/2000/svg">
<path d="M14.25 12C14.25 10.7574 13.2426 9.75 12 9.75C10.7574 9.75 9.75 10.7574 9.75 12C9.75 13.2426 10.7574 14.25 12 14.25C13.2426 14.25 14.25 13.2426 14.25 12ZM15.75 12C15.75 14.0711 14.0711 15.75 12 15.75C9.92893 15.75 8.25 14.0711 8.25 12C8.25 9.92893 9.92893 8.25 12 8.25C14.0711 8.25 15.75 9.92893 15.75 12Z" fill="black"/>
<path d="M21.2598 11.1197C21.2596 10.4867 20.7384 9.97048 20.1104 9.97028C19.0456 9.97028 18.098 9.58761 17.6201 8.75837C17.1422 7.92896 17.2862 6.91685 17.8213 5.99372C18.114 5.48585 17.9663 4.83206 17.4961 4.4947L17.3975 4.43122L15.668 3.44099L15.6562 3.43513L16.04 2.78962L15.6562 3.43415C15.239 3.18623 14.6768 3.32287 14.4082 3.76521L14.4092 3.76618L14.2988 3.95564C13.764 4.87844 12.9577 5.50739 12.001 5.50739C11.0432 5.50727 10.2389 4.87716 9.70898 3.95271V3.95173L9.60059 3.76618V3.76521C9.33178 3.32324 8.77057 3.18619 8.35352 3.43415L8.34277 3.44099L6.6123 4.43122C6.06534 4.74377 5.87635 5.45197 6.18848 5.99372L6.28418 6.16755C6.73933 7.04252 6.83782 7.98065 6.38965 8.75837C5.91178 9.58744 4.96494 9.97019 3.90039 9.97028C3.26727 9.97028 2.75017 10.4915 2.75 11.1197V12.8804C2.75024 13.5086 3.26731 14.0299 3.90039 14.0299L4.09863 14.0347C5.08157 14.0799 5.94167 14.4645 6.38965 15.2418C6.86743 16.0709 6.72304 17.0816 6.18848 18.0045L6.18945 18.0054C5.89606 18.5134 6.04325 19.1678 6.51367 19.5054L6.6123 19.5689L8.34277 20.5592L8.35352 20.565L8.43359 20.608C8.84248 20.7967 9.35528 20.6467 9.60547 20.2261L9.71094 20.0445V20.0435L9.81445 19.8746C10.3472 19.0451 11.1118 18.4927 12.0088 18.4927C12.9657 18.4928 13.7688 19.1214 14.2988 20.0445L14.4043 20.2261L14.458 20.3072C14.7416 20.6912 15.2629 20.799 15.6562 20.565L15.667 20.5592L16.04 21.2095L15.668 20.5592L17.3975 19.5689L17.4961 19.5054C17.9661 19.1692 18.1152 18.522 17.8184 18.0025V18.0015C17.2855 17.0797 17.143 16.0698 17.6201 15.2418C18.098 14.4125 19.0456 14.0299 20.1104 14.0299C20.7433 14.0297 21.2595 13.5085 21.2598 12.8804V11.1197ZM22.7598 12.8804C22.7595 14.3318 21.5768 15.5297 20.1104 15.5299C19.3651 15.5299 19.037 15.7876 18.9199 15.9908C18.8175 16.1685 18.7598 16.5069 18.998 17.022L19.1191 17.2535L19.1211 17.2584L19.2432 17.4986C19.7877 18.7222 19.3365 20.1893 18.1426 20.8717L18.1416 20.8707L16.4121 21.8609L16.4111 21.8599C15.2526 22.5407 13.7862 22.1214 13.1152 20.9937L13.1113 20.9859L13.001 20.7955L12.999 20.7925C12.6291 20.1475 12.2434 19.9928 12.0088 19.9927C11.773 19.9927 11.3839 20.1493 11.0088 20.7965L11.0078 20.7955L10.8994 20.9859L10.8945 20.9937C10.2234 22.1216 8.7563 22.5414 7.59766 21.8599V21.8609L5.86816 20.8707V20.8717C4.59554 20.1444 4.16373 18.5126 4.89062 17.2545L4.8916 17.2535L5.01172 17.022C5.25003 16.5068 5.19225 16.1685 5.08984 15.9908C4.98733 15.813 4.72373 15.5936 4.16016 15.5416L3.90039 15.5299C2.43376 15.5299 1.25024 14.3319 1.25 12.8804V11.1197C1.25017 9.66819 2.43372 8.47028 3.90039 8.47028C4.64509 8.47019 4.97267 8.21249 5.08984 8.00935C5.20688 7.80626 5.26654 7.39254 4.8916 6.74567H4.89062C4.20905 5.56603 4.54587 4.05788 5.63965 3.27497L5.86816 3.12849L7.58691 2.14607V2.14509C8.6747 1.49823 10.038 1.82746 10.7588 2.80329L10.8945 3.00642L10.8994 3.01423L11.0088 3.20466L11.0107 3.20661L11.1494 3.42634C11.4743 3.8886 11.7956 4.00729 12.001 4.00739C12.2073 4.00739 12.5314 3.8879 12.8604 3.42439L13.001 3.20368L13.1113 3.01423L13.1152 3.00642L13.251 2.80329C13.9718 1.82724 15.3359 1.49786 16.4238 2.14509L16.4229 2.14607L18.1416 3.12849H18.1426C19.3356 3.81033 19.7891 5.28699 19.2422 6.50544L19.1191 6.74567C18.7442 7.39254 18.8029 7.80626 18.9199 8.00935C19.0371 8.21254 19.3653 8.47028 20.1104 8.47028C21.5617 8.47047 22.7596 9.65318 22.7598 11.1197V12.8804Z" fill="black"/>
</svg>
