<svg width="34" height="34" viewBox="0 0 34 34" fill="none" xmlns="http://www.w3.org/2000/svg">
<path d="M4.43234 4.36126C5.41251 3.38118 6.83622 3.07579 8.40565 3.22544C9.97936 3.37552 11.8473 3.98993 13.9478 5.04193L26.0739 11.1056L26.601 11.3823C29.1659 12.8031 30.7417 14.7674 30.7417 17.0006C30.7414 19.2335 29.1657 21.1968 26.601 22.6174L26.0739 22.8941L13.9478 28.9579C11.8439 30.0098 9.97437 30.6242 8.40011 30.7744C6.83043 30.924 5.40632 30.6191 4.42681 29.6385C3.4475 28.6579 3.1444 27.234 3.29513 25.6652C3.44641 24.0918 4.06103 22.2235 5.113 20.1231L5.11439 20.1217L6.34705 17.6702C6.40815 17.5465 6.46737 17.3079 6.46741 17.0075C6.46741 16.7807 6.43278 16.589 6.38994 16.4555L6.34567 16.3421L5.113 13.8767V13.8781C4.06074 11.7772 3.44659 9.9085 3.29652 8.33457C3.14688 6.76512 3.45219 5.34142 4.43234 4.36126ZM8.20366 5.34076C6.98299 5.2244 6.29868 5.49989 5.93478 5.86371C5.57093 6.22756 5.29551 6.91192 5.41183 8.13259C5.51333 9.19703 5.90666 10.5592 6.66525 12.2041L7.01388 12.9263L8.24655 15.3916L8.33232 15.5825C8.51842 16.0378 8.59241 16.5468 8.59241 17.0075C8.59237 17.5337 8.49663 18.1232 8.24655 18.6234L8.24517 18.6248L7.0125 21.0735L7.01388 21.0749C6.02614 23.047 5.52743 24.6519 5.41045 25.8686C5.29313 27.0897 5.56641 27.7742 5.92925 28.1375C6.29202 28.5007 6.97626 28.7755 8.19813 28.659C9.41542 28.543 11.0217 28.0448 12.9974 27.057L25.1234 20.9933L25.5855 20.7512C27.8017 19.524 28.6164 18.1275 28.6167 17.0006C28.6167 15.8736 27.8022 14.476 25.5855 13.2486L25.1234 13.0065L12.9974 6.94281C11.0253 5.95507 9.42012 5.45675 8.20366 5.34076Z" fill="black"/>
<path d="M15.3573 15.9375L15.4653 15.943C16.0011 15.9974 16.4198 16.4498 16.4198 17C16.4198 17.5502 16.0011 18.0026 15.4653 18.057L15.3573 18.0625H7.70679C7.11998 18.0625 6.64429 17.5868 6.64429 17C6.64429 16.4132 7.11998 15.9375 7.70679 15.9375H15.3573Z" fill="black"/>
</svg>
