<svg width="68" height="11" viewBox="0 0 68 11" fill="none" xmlns="http://www.w3.org/2000/svg">
<path d="M7.19336 3.11133L10.7373 3.87305L8.32129 6.55859L8.68652 10.1406L5.36816 8.68848L2.05078 10.1406L2.41602 6.55859L0 3.87305L3.54395 3.11133L5.36816 0L7.19336 3.11133Z" fill="#E2C400"/>
<path d="M21.5088 3.11133L25.0527 3.87305L22.6367 6.55859L23.002 10.1406L19.6846 8.68848L16.3662 10.1406L16.7314 6.55859L14.3164 3.87305L17.8594 3.11133L19.6846 0L21.5088 3.11133Z" fill="#E2C400"/>
<path d="M35.8252 3.11133L39.3682 3.87305L36.9531 6.55859L37.3184 10.1406L34 8.68848L30.6826 10.1406L31.0479 6.55859L28.6318 3.87305L32.1758 3.11133L34 0L35.8252 3.11133Z" fill="#E2C400"/>
<path d="M50.1406 3.11133L53.6846 3.87305L51.2686 6.55859L51.6338 10.1406L48.3164 8.68848L44.998 10.1406L45.3633 6.55859L42.9473 3.87305L46.4912 3.11133L48.3164 0L50.1406 3.11133Z" fill="#E2C400"/>
<path d="M62.6321 0L64.4569 3.11125L68.0005 3.87327L65.5847 6.55815L65.95 10.1404L62.6321 8.68845L59.3142 10.1404L59.6795 6.55815L57.2637 3.87327L60.8073 3.11125L62.6321 0Z" fill="#E2C400"/>
<path d="M59.3132 10.1404L62.6311 8.68844V0L60.8063 3.11125L57.2627 3.87327L59.6785 6.55815L59.3132 10.1404Z" fill="#E2C400"/>
</svg>
