<svg width="24" height="24" viewBox="0 0 24 24" fill="none" xmlns="http://www.w3.org/2000/svg">
<path d="M9.17188 12.4375C11.0993 12.4375 13.0647 12.9215 14.584 13.9355H14.585C15.9515 14.8447 16.7344 16.1194 16.7344 17.4912C16.7344 18.7769 16.047 19.9795 14.8359 20.8779L14.5869 21.0537C13.0628 22.0735 11.094 22.5595 9.16504 22.5596C7.23596 22.5596 5.2664 22.0735 3.74219 21.0537V21.0527C2.37709 20.1437 1.59483 18.87 1.59473 17.499C1.59473 16.1277 2.37692 14.8505 3.74219 13.9365L3.74512 13.9346C5.27345 12.9212 7.24357 12.4376 9.17188 12.4375ZM9.17188 13.9375C7.47043 13.9376 5.8057 14.369 4.57422 15.1855C3.52171 15.8912 3.09473 16.7435 3.09473 17.499C3.09482 18.2074 3.46992 18.9993 4.38477 19.6729L4.5752 19.8057L4.57715 19.8066C5.80291 20.6267 7.46423 21.0596 9.16504 21.0596C10.8658 21.0595 12.5272 20.6268 13.7529 19.8066C14.8073 19.1007 15.2344 18.2473 15.2344 17.4912C15.2344 16.7355 14.8073 15.8854 13.7539 15.1846L13.7529 15.1836C12.5325 14.3686 10.8736 13.9375 9.17188 13.9375ZM18.5342 13.2686C19.3223 13.4462 20.0961 13.7628 20.749 14.2598C21.6917 14.9668 22.2197 15.9532 22.2197 16.9951C22.2197 18.037 21.6927 19.0235 20.75 19.7305L20.749 19.7295C20.0884 20.2348 19.3039 20.5654 18.4932 20.7344C18.0878 20.8188 17.6901 20.5586 17.6055 20.1533C17.521 19.7479 17.7811 19.3502 18.1865 19.2656C18.8128 19.1352 19.3849 18.8867 19.8428 18.5352L19.8496 18.5303C20.4669 18.0673 20.7197 17.5031 20.7197 16.9951C20.7197 16.4871 20.4669 15.9229 19.8496 15.46L19.8447 15.4561C19.3989 15.1156 18.8345 14.8733 18.2051 14.7314L18.3701 14L18.5342 13.2686ZM17.6377 13.835C17.7288 13.431 18.1302 13.1777 18.5342 13.2686L18.2051 14.7314C17.801 14.6404 17.5466 14.239 17.6377 13.835ZM19.1602 7.5C19.1602 6.07752 18.0823 4.90548 16.6914 4.76465L16.4102 4.75L16.333 4.74609C15.9548 4.70767 15.6602 4.38831 15.6602 4C15.6602 3.58579 15.9959 3.25 16.4102 3.25L16.6289 3.25586C18.8817 3.36982 20.6602 5.23031 20.6602 7.5C20.6602 9.79545 18.8382 11.664 16.5674 11.749C16.5271 11.7505 16.4863 11.7491 16.4463 11.7441C16.4312 11.7423 16.4005 11.7409 16.3623 11.7451C15.9508 11.7907 15.58 11.4945 15.5342 11.083C15.4884 10.6713 15.7856 10.3006 16.1973 10.2549L16.4131 10.2422C16.4515 10.2422 16.4899 10.2466 16.5283 10.249C17.9897 10.1855 19.1602 8.97892 19.1602 7.5ZM9 1.25C11.8641 1.25015 14.1895 3.57631 14.1895 6.44043V6.44336C14.1777 9.24364 11.9703 11.5255 9.18457 11.6191C9.15137 11.6202 9.11801 11.6195 9.08496 11.6162C9.03674 11.6114 8.96458 11.6111 8.89746 11.6172C8.86662 11.62 8.83563 11.6202 8.80469 11.6191C6.01962 11.5255 3.8098 9.24361 3.80957 6.44043C3.80957 3.57732 6.12469 1.25 9 1.25ZM5.30957 6.44043C5.3098 8.43242 6.87333 10.046 8.8418 10.1191C8.94121 10.1133 9.04426 10.1134 9.14355 10.1191C11.1124 10.0482 12.6793 8.43534 12.6895 6.44043L12.6846 6.25C12.5855 4.30238 10.9719 2.75014 9 2.75C6.95531 2.75 5.30957 4.40354 5.30957 6.44043Z" fill="#828282"/>
</svg>
